# xmcd CD database file
#
# Track frame offsets:
#	150
#	9763
#	33448
#	56743
#	77589
#	93749
#	111350
#	123250
#	145542
#	169319
#	189378
#	204756
#
# Disc length: 3052 seconds
#
# Revision: 0
# Processed by: cddbd v1.5PL3 Copyright (c) Steve Scherf et al.
# Submitted via: CDex 1.51
#
DISCID=940bea0c
DTITLE=Emile - Spirit of the Crusaders
DYEAR=1998
DGENRE=New Age
TTITLE0=Crusaders
TTITLE1=Spirit of the Crusaders
TTITLE2=Divas Dance
TTITLE3=Lament
TTITLE4=Renaissance
TTITLE5=Victory
TTITLE6=Peace
TTITLE7=River of Light
TTITLE8=Crusaders' Honor
TTITLE9=Battle of the Roble
TTITLE10=Beautiful Queen
TTITLE11=Farewell
EXTD=YEAR: 1998
EXTT0=
EXTT1=
EXTT2=
EXTT3=
EXTT4=
EXTT5=
EXTT6=
EXTT7=
EXTT8=
EXTT9=
EXTT10=
EXTT11=
PLAYORDER=
